<svg xmlns="http://www.w3.org/2000/svg" data-size="large" fill="none" height="152" viewBox="0 0 117 152" width="117"><path d="M3.99999 4L3.99999 60C3.99999 66.6274 9.37258 72 16 72L104 72C110.627 72 116 77.3726 116 84L116 152" stroke="url(#paint0_linear_1364_100888)" stroke-width="2"/><path d="M3.99999 4L3.99999 60C3.99999 66.6274 9.37258 72 16 72L104 72C110.627 72 116 77.3726 116 84L116 152" stroke="url(#paint1_linear_1364_100888)" stroke-width="2"/><g clip-path="url(#clip0_1364_100888)"><path clip-rule="evenodd" d="M4 0.5L8 7.5H0L4 0.5Z" fill="#45DEC4" fill-rule="evenodd"/></g><defs><linearGradient gradientUnits="userSpaceOnUse" id="paint0_linear_1364_100888" x1="116" x2="4" y1="72" y2="72"><stop stop-color="#E5484D"/><stop offset="0.5" stop-color="#FFC634"/><stop offset="1" stop-color="#45DEC4"/></linearGradient><linearGradient gradientUnits="userSpaceOnUse" id="paint1_linear_1364_100888" x1="116" x2="116" y1="152" y2="1.56712e-05"><stop stop-color="var(--ds-background-200)"/><stop offset="0.322368" stop-color="var(--ds-background-200)" stop-opacity="0"/></linearGradient><clipPath id="clip0_1364_100888"><rect fill="white" height="8" width="8"/></clipPath></defs></svg>