<svg xmlns="http://www.w3.org/2000/svg" aria-hidden="true" fill="none" height="32" viewBox="0 0 32 32" width="32"><path d="M11.0694 26.882C9.46483 25.4565 8.99646 22.4611 9.66494 20.291C10.824 21.6592 12.43 22.0926 14.0936 22.3373C16.6617 22.7148 19.1838 22.5736 21.5694 21.4327C21.8424 21.3021 22.0946 21.1284 22.3928 20.9525C22.6166 21.5837 22.6749 22.221 22.5967 22.8696C22.4066 24.4492 21.5978 25.6694 20.3115 26.5944C19.7971 26.9643 19.2528 27.295 18.7215 27.6439C17.0895 28.7161 16.6479 29.9733 17.2612 31.8021C17.2757 31.8466 17.2888 31.8912 17.3217 31.9999C16.4884 31.6375 15.8797 31.1097 15.416 30.4157C14.9261 29.6833 14.693 28.8731 14.6808 27.9965C14.6747 27.5699 14.6747 27.1395 14.6156 26.7189C14.4715 25.6936 13.9763 25.2345 13.0433 25.208C12.0859 25.1809 11.3285 25.7562 11.1276 26.6623C11.1123 26.7318 11.0901 26.8005 11.0678 26.8813L11.0694 26.882Z" fill="url(#paint0_linear_1061_100688)"/><path d="M3 20.9555C3 20.9555 7.38726 18.8557 11.7868 18.8557L15.1039 8.76941C15.228 8.28162 15.5907 7.95016 16 7.95016C16.4094 7.95016 16.772 8.28162 16.8962 8.76941L20.2132 18.8557C25.4238 18.8557 29 20.9555 29 20.9555C29 20.9555 21.5479 1.00953 21.5333 0.969513C21.3194 0.379801 20.9584 0 20.4716 0L11.5292 0C11.0424 0 10.6959 0.379801 10.4674 0.969513C10.4513 1.00877 3 20.9555 3 20.9555Z" fill="var(--geist-foreground)"/><defs><linearGradient gradientUnits="userSpaceOnUse" id="paint0_linear_1061_100688" x1="9.37011" x2="24.6992" y1="31.9999" y2="24.5484"><stop stop-color="#D83333"/><stop offset="1" stop-color="#F041FF"/></linearGradient></defs></svg>