<svg xmlns="http://www.w3.org/2000/svg" fill="none" height="16" viewBox="0 0 44 16" width="44"><mask height="16" id="mask0_1063_50435" maskUnits="userSpaceOnUse" style="mask-type:alpha" width="16" x="28" y="0"><path clip-rule="evenodd" d="M30.5945 9.45197C30.8893 8.42444 30.8427 7.32898 30.4617 6.3302L30.4393 6.27288L30.4367 6.2663L28.3197 0.741067L28.315 0.729303C28.2418 0.545259 28.1346 0.378067 28 0.235908V0H44V16H28V12.6479L28.8276 12.0281L28.8381 12.0197C29.6848 11.3755 30.3009 10.4749 30.5945 9.45197Z" fill="#D9D9D9" fill-rule="evenodd"/></mask><g mask="url(#mask0_1063_50435)"><path d="M43.0132 1.00004C43.0833 0.999103 43.1528 1.01411 43.2168 1.04401C43.2807 1.07391 43.3376 1.11798 43.3834 1.17313C43.4292 1.22827 43.4628 1.29315 43.4819 1.36322C43.501 1.43328 43.505 1.50683 43.4938 1.57869L41.4536 14.4338C41.4282 14.5911 41.3502 14.7341 41.2333 14.8376C41.1164 14.9411 40.9681 14.9986 40.8144 15H31.027C30.9118 15.0015 30.7999 14.96 30.7117 14.8831C30.6234 14.8062 30.5648 14.699 30.5464 14.5809L28.5062 1.58119C28.495 1.50932 28.499 1.43577 28.5181 1.36571C28.5372 1.29565 28.5708 1.23077 28.6166 1.17562C28.6624 1.12048 28.7193 1.07641 28.7832 1.04651C28.8472 1.0166 28.9167 1.0016 28.9868 1.00254L43.0132 1.00004ZM34.4224 10.2909H37.5463L38.3922 5.70409H33.6655L34.4224 10.2909Z" fill="#2684FF"/><path d="M29.155 5.7041H33.6655L34.4224 10.2909H37.5464L41.235 14.8354C41.1181 14.9403 40.969 14.9986 40.8145 15H31.0246C30.9094 15.0015 30.7975 14.96 30.7093 14.8831C30.6211 14.8062 30.5624 14.699 30.544 14.5809L29.155 5.7041Z" fill="url(#paint0_linear_1063_50435)"/></g><mask height="16" id="mask1_1063_50435" maskUnits="userSpaceOnUse" style="mask-type:alpha" width="16" x="14" y="0"><path clip-rule="evenodd" d="M14 14.7083C15.8412 13.0604 17 10.6655 17 8C17 5.3345 15.8412 2.93964 14 1.29168V0H30V16H14V14.7083Z" fill="#D9D9D9" fill-rule="evenodd"/></mask><g mask="url(#mask1_1063_50435)"><g clip-path="url(#clip0_1063_50435)"><path d="M29.5274 6.68664L29.5055 6.63069L27.3858 1.0989C27.3427 0.990478 27.2663 0.898505 27.1677 0.836175C27.069 0.774904 26.9539 0.745394 26.8379 0.751629C26.7219 0.757865 26.6106 0.799545 26.519 0.871043C26.4285 0.944593 26.3628 1.04426 26.3309 1.15647L24.8997 5.53519H19.1044L17.6732 1.15647C17.6421 1.04365 17.5763 0.943483 17.4851 0.870232C17.3935 0.798734 17.2822 0.757054 17.1662 0.750818C17.0502 0.744583 16.9351 0.774093 16.8364 0.835364C16.7379 0.897946 16.6616 0.989838 16.6182 1.09809L14.4946 6.62744L14.4735 6.68339C14.1683 7.48065 14.1307 8.3555 14.3662 9.17603C14.6016 9.99656 15.0975 10.7183 15.779 11.2324L15.7863 11.2381L15.8057 11.2519L19.0346 13.6699L20.6321 14.8789L21.6051 15.6136C21.7189 15.7 21.8579 15.7468 22.0008 15.7468C22.1437 15.7468 22.2827 15.7 22.3965 15.6136L23.3696 14.8789L24.967 13.6699L28.2154 11.2373L28.2235 11.2308C28.9034 10.7166 29.3981 9.99558 29.6332 9.17616C29.8684 8.35673 29.8312 7.48313 29.5274 6.68664Z" fill="#E24329"/><path d="M29.5273 6.68663L29.5055 6.63068C28.4726 6.84267 27.4994 7.28015 26.6552 7.91186L22 11.4319C23.5853 12.6311 24.9654 13.6731 24.9654 13.6731L28.2137 11.2405L28.2218 11.234C28.9028 10.7198 29.3982 9.99837 29.6337 9.17825C29.8691 8.35812 29.8318 7.48371 29.5273 6.68663Z" fill="#FC6D26"/><path d="M19.0346 13.6731L20.632 14.8821L21.6051 15.6167C21.7189 15.7032 21.8579 15.7499 22.0008 15.7499C22.1437 15.7499 22.2827 15.7032 22.3965 15.6167L23.3695 14.8821L24.967 13.6731C24.967 13.6731 23.5852 12.6279 22 11.4318C20.4147 12.6279 19.0346 13.6731 19.0346 13.6731Z" fill="#FCA326"/><path d="M17.3439 7.91187C16.5004 7.27886 15.5274 6.84024 14.4945 6.62744L14.4734 6.68339C14.1683 7.48065 14.1306 8.35549 14.3661 9.17602C14.6016 9.99656 15.0974 10.7183 15.7789 11.2324L15.7862 11.2381L15.8057 11.2519L19.0346 13.6699C19.0346 13.6699 20.4131 12.6279 21.9999 11.4286L17.3439 7.91187Z" fill="#FC6D26"/></g></g><g clip-path="url(#clip1_1063_50435)"><path clip-rule="evenodd" d="M8 0C3.58 0 0 3.57879 0 7.99729C0 11.5361 2.29 14.5251 5.47 15.5847C5.87 15.6547 6.02 15.4148 6.02 15.2049C6.02 15.0149 6.01 14.3851 6.01 13.7154C4 14.0852 3.48 13.2255 3.32 12.7757C3.23 12.5458 2.84 11.836 2.5 11.6461C2.22 11.4961 1.82 11.1262 2.49 11.1162C3.12 11.1062 3.57 11.696 3.72 11.936C4.44 13.1455 5.59 12.8057 6.05 12.5957C6.12 12.0759 6.33 11.726 6.56 11.5261C4.78 11.3262 2.92 10.6364 2.92 7.57743C2.92 6.70773 3.23 5.98797 3.74 5.42816C3.66 5.22823 3.38 4.40851 3.82 3.30888C3.82 3.30888 4.49 3.09895 6.02 4.1286C6.66 3.94866 7.34 3.85869 8.02 3.85869C8.7 3.85869 9.38 3.94866 10.02 4.1286C11.55 3.08895 12.22 3.30888 12.22 3.30888C12.66 4.40851 12.38 5.22823 12.3 5.42816C12.81 5.98797 13.12 6.69773 13.12 7.57743C13.12 10.6464 11.25 11.3262 9.47 11.5261C9.76 11.776 10.01 12.2558 10.01 13.0056C10.01 14.0752 10 14.9349 10 15.2049C10 15.4148 10.15 15.6647 10.55 15.5847C12.1381 15.0488 13.5182 14.0284 14.4958 12.6673C15.4735 11.3062 15.9996 9.67293 16 7.99729C16 3.57879 12.42 0 8 0Z" fill="var(--geist-foreground)" fill-rule="evenodd"/></g><defs><linearGradient gradientUnits="userSpaceOnUse" id="paint0_linear_1063_50435" x1="28.1121" x2="35.7745" y1="6.98861" y2="12.7502"><stop offset="0.18" stop-color="#0052CC"/><stop offset="1" stop-color="#2684FF"/></linearGradient><clipPath id="clip0_1063_50435"><rect fill="white" height="16" transform="translate(14)" width="16"/></clipPath><clipPath id="clip1_1063_50435"><rect fill="white" height="16" width="16"/></clipPath></defs></svg>